<svg width="80" height="24" viewBox="0 0 80 24" fill="none" xmlns="http://www.w3.org/2000/svg">
<path d="M10.075 18.275C8.75833 18.275 7.53333 18.05 6.4 17.6C5.28333 17.1333 4.3 16.4833 3.45 15.65C2.61667 14.8167 1.96667 13.85 1.5 12.75C1.03333 11.6333 0.8 10.4333 0.8 9.15C0.8 7.86667 1.03333 6.675 1.5 5.575C1.96667 4.45833 2.61667 3.49167 3.45 2.675C4.28333 1.85833 5.25833 1.225 6.375 0.775C7.50833 0.308333 8.73333 0.0749998 10.05 0.0749998C11.45 0.0749998 12.6917 0.299999 13.775 0.749999C14.875 1.2 15.8333 1.81667 16.65 2.6L14.025 5.25C13.5583 4.75 12.9917 4.35833 12.325 4.075C11.675 3.79167 10.9167 3.65 10.05 3.65C9.28333 3.65 8.575 3.78333 7.925 4.05C7.29167 4.3 6.74167 4.66667 6.275 5.15C5.825 5.63333 5.46667 6.21667 5.2 6.9C4.95 7.58333 4.825 8.33333 4.825 9.15C4.825 9.98333 4.95 10.7417 5.2 11.425C5.46667 12.1083 5.825 12.6917 6.275 13.175C6.74167 13.6583 7.29167 14.0333 7.925 14.3C8.575 14.5667 9.28333 14.7 10.05 14.7C10.95 14.7 11.7333 14.5583 12.4 14.275C13.0667 13.9917 13.6417 13.6 14.125 13.1L16.775 15.75C15.925 16.5333 14.95 17.15 13.85 17.6C12.7667 18.05 11.5083 18.275 10.075 18.275ZM18.5863 18V5.85H22.4113V18H18.5863ZM22.4113 11.325L20.8113 10.075C21.128 8.65833 21.6613 7.55833 22.4113 6.775C23.1613 5.99167 24.203 5.6 25.5363 5.6C26.1197 5.6 26.628 5.69167 27.0613 5.875C27.5113 6.04167 27.903 6.30833 28.2363 6.675L25.9613 9.55C25.7947 9.36667 25.5863 9.225 25.3363 9.125C25.0863 9.025 24.803 8.975 24.4863 8.975C23.853 8.975 23.3447 9.175 22.9613 9.575C22.5947 9.95833 22.4113 10.5417 22.4113 11.325ZM32.9076 18.05L27.9076 5.85H32.0326L35.2076 15.525H33.6826L36.9326 5.85H41.0576L35.8576 18.05H32.9076ZM29.7826 23.125L33.4326 15.25L35.8576 18.05L33.7076 23.125H29.7826ZM49.2191 18.25C48.4025 18.25 47.6525 18.0917 46.9691 17.775C46.2858 17.4583 45.7275 17.025 45.2941 16.475C44.8608 15.9083 44.6108 15.2667 44.5441 14.55V9.425C44.6108 8.70833 44.8608 8.05833 45.2941 7.475C45.7275 6.89167 46.2858 6.43333 46.9691 6.1C47.6525 5.76667 48.4025 5.6 49.2191 5.6C50.3691 5.6 51.3858 5.875 52.2691 6.425C53.1691 6.975 53.8691 7.725 54.3691 8.675C54.8858 9.625 55.1441 10.7083 55.1441 11.925C55.1441 13.1417 54.8858 14.225 54.3691 15.175C53.8691 16.125 53.1691 16.875 52.2691 17.425C51.3858 17.975 50.3691 18.25 49.2191 18.25ZM48.5191 14.8C49.0691 14.8 49.5441 14.675 49.9441 14.425C50.3608 14.175 50.6858 13.8333 50.9191 13.4C51.1525 12.9667 51.2691 12.475 51.2691 11.925C51.2691 11.3583 51.1525 10.8583 50.9191 10.425C50.6858 9.99167 50.3608 9.65833 49.9441 9.425C49.5441 9.175 49.0775 9.05 48.5441 9.05C48.0108 9.05 47.5358 9.175 47.1191 9.425C46.7191 9.65833 46.4025 9.99167 46.1691 10.425C45.9358 10.8583 45.8191 11.3583 45.8191 11.925C45.8191 12.475 45.9275 12.9667 46.1441 13.4C46.3775 13.8333 46.7025 14.175 47.1191 14.425C47.5358 14.675 48.0025 14.8 48.5191 14.8ZM42.2191 23.125V5.85H46.0441V8.975L45.4191 11.925L45.9941 14.875V23.125H42.2191ZM58.5682 18V0.824999H62.3932V18H58.5682ZM55.8182 9.1V5.85H65.1432V9.1H55.8182ZM72.4344 18.275C71.1844 18.275 70.051 18 69.0344 17.45C68.0344 16.8833 67.2427 16.1167 66.6594 15.15C66.076 14.1833 65.7844 13.1 65.7844 11.9C65.7844 10.7 66.076 9.625 66.6594 8.675C67.2427 7.725 68.0344 6.975 69.0344 6.425C70.0344 5.85833 71.1677 5.575 72.4344 5.575C73.701 5.575 74.8344 5.85 75.8344 6.4C76.8344 6.95 77.626 7.70833 78.2094 8.675C78.7927 9.625 79.0844 10.7 79.0844 11.9C79.0844 13.1 78.7927 14.1833 78.2094 15.15C77.626 16.1167 76.8344 16.8833 75.8344 17.45C74.8344 18 73.701 18.275 72.4344 18.275ZM72.4344 14.8C72.9844 14.8 73.4677 14.6833 73.8844 14.45C74.301 14.2 74.6177 13.8583 74.8344 13.425C75.0677 12.975 75.1844 12.4667 75.1844 11.9C75.1844 11.3333 75.0677 10.8417 74.8344 10.425C74.601 9.99167 74.276 9.65833 73.8594 9.425C73.4594 9.175 72.9844 9.05 72.4344 9.05C71.901 9.05 71.426 9.175 71.0094 9.425C70.5927 9.65833 70.2677 9.99167 70.0344 10.425C69.801 10.8583 69.6844 11.3583 69.6844 11.925C69.6844 12.475 69.801 12.975 70.0344 13.425C70.2677 13.8583 70.5927 14.2 71.0094 14.45C71.426 14.6833 71.901 14.8 72.4344 14.8Z" fill="white"/>
<path d="M0 11.1H79.6344V12.35H0V11.1Z" fill="white"/>
</svg>
